<svg width="40" height="41" viewBox="0 0 40 41" fill="none" xmlns="http://www.w3.org/2000/svg">
<circle cx="20" cy="20.1328" r="20" fill="#214AC2"/>
<path d="M29.2439 21.7649L29.1028 21.7179H27.7229C27.476 22.3373 27.0173 23.282 26.2372 24.2464C25.9158 24.0935 25.559 24.0112 25.1749 23.9974C24.579 24.019 24.0282 24.2679 23.6225 24.7031C23.2167 25.1382 23.0031 25.7047 23.0227 26.2986C23.0266 26.4279 23.0482 26.5553 23.0737 26.6808C22.7718 26.818 22.4778 26.9611 22.1407 27.0689C18.0931 28.3645 13.0244 27.6824 11.9307 24.607C11.4603 23.284 12.0816 21.9864 12.6853 21.1299C13.4242 20.0812 14.5121 19.1639 15.7136 18.4896C15.3314 19.3932 15.253 20.385 15.5352 21.3396C15.8567 22.4294 16.5819 23.3271 17.5815 23.87C18.2127 24.215 18.9066 24.3894 19.6083 24.3894C19.8337 24.3894 20.061 24.3659 20.2884 24.3287C20.2923 24.3287 20.2962 24.3287 20.3002 24.3287C23.0756 24.0778 26.1431 22.3314 27.8131 19.9616C28.9441 18.3603 29.2753 16.6589 28.7461 15.1712C27.3309 11.1845 21.4154 10.3279 16.7407 11.8215C16.2585 11.9763 15.8312 12.1645 15.4117 12.3585C14.514 11.5882 13.1577 11.6529 12.3423 12.5251C11.9365 12.9603 11.7229 13.5267 11.7425 14.1206C11.7523 14.4166 11.8209 14.7028 11.9405 14.9654C10.7879 16.3277 10.2332 17.7174 10 18.5112L10.1548 18.5563H11.5014C11.7347 17.8859 12.1659 16.9451 12.9499 15.9906C13.2655 16.1572 13.6026 16.2728 13.9672 16.2728C13.9946 16.2728 14.0201 16.2728 14.0436 16.2728C14.6375 16.2512 15.1903 16.0023 15.596 15.5672C16.1037 15.0242 16.2801 14.2912 16.1468 13.611C16.4761 13.464 16.8034 13.3151 17.1797 13.1955C21.2253 11.8999 26.296 12.582 27.3897 15.6573C27.8601 16.9804 27.2388 18.2779 26.6351 19.1345C25.8707 20.2184 24.7378 21.1691 23.4872 21.8492C23.893 20.9299 23.9812 19.9126 23.693 18.9365C23.3716 17.8467 22.6464 16.9471 21.6467 16.4041C21.0352 16.0709 20.3688 15.9161 19.6945 15.9043C19.6945 15.9043 19.5475 15.9004 19.475 15.9043C19.3397 15.9082 19.2045 15.9239 19.0673 15.9357C16.2801 16.1728 13.189 17.9251 11.5093 20.3047C10.3783 21.906 10.047 23.6074 10.5763 25.0951C11.5641 27.8764 14.7414 29.1328 18.1598 29.1328C19.6416 29.1328 21.1685 28.8976 22.5817 28.4448C23.0364 28.2998 23.4402 28.1136 23.84 27.9234C24.2517 28.2665 24.7476 28.4527 25.2513 28.4527C25.8472 28.4527 26.443 28.2175 26.8801 27.749C27.523 27.061 27.6387 26.0731 27.2564 25.2695C28.4423 23.8426 29.0342 22.4059 29.2479 21.7688L29.2439 21.7649ZM13.9515 14.8576C13.5105 14.8576 13.1538 14.5009 13.1538 14.0599C13.1538 13.6189 13.5105 13.2621 13.9515 13.2621C14.3925 13.2621 14.7492 13.6189 14.7492 14.0599C14.7492 14.5009 14.3925 14.8576 13.9515 14.8576ZM19.8709 17.3528V17.0607L22.9168 20.6673L19.8709 22.7371V17.3528ZM19.3476 17.0607V17.3606V22.7391L16.3016 20.6692L19.3476 17.0627V17.0607ZM25.2356 27.0277C24.7946 27.0277 24.4379 26.671 24.4379 26.2299C24.4379 25.7889 24.7946 25.4322 25.2356 25.4322C25.6766 25.4322 26.0334 25.7889 26.0334 26.2299C26.0334 26.671 25.6766 27.0277 25.2356 27.0277Z" fill="white"/>
</svg>
